<svg width="147" height="44" viewBox="0 0 147 44" fill="none" xmlns="http://www.w3.org/2000/svg">
<path d="M19.8086 23.6953C19.668 25.2656 19.1992 26.6719 18.4023 27.9141C17.6055 29.1562 16.5859 30.1992 15.3438 31.043C14.125 31.9102 12.7422 32.5664 11.1953 33.0117C9.64844 33.457 8.05469 33.6797 6.41406 33.6797C5.80469 33.6797 5.23047 33.6328 4.69141 33.5391C4.17578 33.4688 3.70703 33.375 3.28516 33.2578C2.86328 33.1406 2.5 33.0234 2.19531 32.9062C1.91406 32.8125 1.71484 32.7305 1.59766 32.6602C1.38672 32.543 1.21094 32.3906 1.07031 32.2031C0.953125 32.0391 0.882812 31.793 0.859375 31.4648C0.835938 31.2773 0.824219 31.125 0.824219 31.0078C0.824219 30.9141 0.835938 30.8086 0.859375 30.6914C0.882812 30.5742 0.929688 30.4102 1 30.1992C1.04688 30.0117 1.11719 29.7422 1.21094 29.3906C1.25781 29.1797 1.43359 28.5117 1.73828 27.3867C2.06641 26.2852 2.45312 24.9375 2.89844 23.3438C3.34375 21.7266 3.82422 19.9805 4.33984 18.1055C4.87891 16.2305 5.39453 14.4141 5.88672 12.6562C6.37891 10.8984 6.82422 9.31641 7.22266 7.91016C7.62109 6.48047 7.91406 5.42578 8.10156 4.74609C7.77344 4.98047 7.44531 5.22656 7.11719 5.48438C6.8125 5.74219 6.49609 6.02344 6.16797 6.32812C5.81641 6.65625 5.46484 6.77344 5.11328 6.67969C4.78516 6.5625 4.55078 6.26953 4.41016 5.80078C4.36328 5.56641 4.32812 5.32031 4.30469 5.0625C4.28125 4.85156 4.28125 4.61719 4.30469 4.35938C4.35156 4.07812 4.44531 3.80859 4.58594 3.55078C5.35938 3.08203 6.10938 2.68359 6.83594 2.35547C7.58594 2.02734 8.30078 1.73438 8.98047 1.47656C9.12109 1.07812 9.27344 0.773438 9.4375 0.5625C9.625 0.351562 9.8125 0.210938 10 0.140625C10.1875 0.0703125 10.3867 0.046875 10.5977 0.0703125C10.8086 0.09375 11.0312 0.128906 11.2656 0.175781C11.7812 0.292969 12.1211 0.457031 12.2852 0.667969C12.6133 0.621094 12.9297 0.585937 13.2344 0.5625C13.5391 0.539063 13.8555 0.527344 14.1836 0.527344C15.543 0.527344 16.7266 0.703125 17.7344 1.05469C18.7422 1.40625 19.5625 1.88672 20.1953 2.49609C20.8516 3.08203 21.3203 3.77344 21.6016 4.57031C21.8828 5.36719 21.9883 6.21094 21.918 7.10156C21.8477 7.875 21.6367 8.68359 21.2852 9.52734C20.957 10.3477 20.5117 11.168 19.9492 11.9883C19.3867 12.7852 18.7305 13.5703 17.9805 14.3438C17.2305 15.0938 16.3984 15.7852 15.4844 16.418C16.2109 16.8398 16.8555 17.332 17.418 17.8945C17.9805 18.457 18.4492 19.0664 18.8242 19.7227C19.1992 20.3789 19.4688 21.0469 19.6328 21.7266C19.7969 22.4062 19.8555 23.0625 19.8086 23.6953ZM8.17188 15.082C8.125 15.3164 8.06641 15.5508 7.99609 15.7852C7.94922 16.0195 7.89062 16.2656 7.82031 16.5234C8.10156 16.2188 8.57031 15.9375 9.22656 15.6797C9.90625 15.4219 10.5508 15.293 11.1602 15.293C11.4883 15.293 11.8047 15.3164 12.1094 15.3633C12.4141 15.3867 12.707 15.4219 12.9883 15.4688C13.6445 15.0469 14.2773 14.5078 14.8867 13.8516C15.4961 13.1719 16.0234 12.457 16.4688 11.707C16.9375 10.9336 17.3125 10.1484 17.5938 9.35156C17.8984 8.55469 18.0859 7.81641 18.1562 7.13672C18.2969 5.51953 18.0156 4.32422 17.3125 3.55078C16.6328 2.75391 15.6602 2.35547 14.3945 2.35547C13.5508 2.35547 12.6719 2.50781 11.7578 2.8125C11.5703 3.42188 11.3359 4.18359 11.0547 5.09766C10.7734 5.98828 10.4688 6.97266 10.1406 8.05078C9.83594 9.12891 9.50781 10.2656 9.15625 11.4609C8.80469 12.6562 8.47656 13.8633 8.17188 15.082ZM7.57422 17.4023C7.24609 18.668 6.91797 20.0391 6.58984 21.5156C6.28516 22.7812 5.95703 24.2578 5.60547 25.9453C5.25391 27.6094 4.87891 29.3906 4.48047 31.2891C4.62109 31.4062 4.80859 31.4883 5.04297 31.5352C5.27734 31.582 5.51172 31.6289 5.74609 31.6758C6.00391 31.7227 6.28516 31.7461 6.58984 31.7461C7.64453 31.7461 8.71094 31.5234 9.78906 31.0781C10.8906 30.6562 11.8984 30.0469 12.8125 29.25C13.7266 28.4531 14.4883 27.4922 15.0977 26.3672C15.7305 25.2188 16.1055 23.9414 16.2227 22.5352C16.2695 21.9023 16.2227 21.3398 16.082 20.8477C15.9648 20.332 15.7773 19.875 15.5195 19.4766C15.2852 19.0547 15.0039 18.6914 14.6758 18.3867C14.3711 18.0586 14.043 17.7773 13.6914 17.543C12.6133 18.1289 11.4297 18.6211 10.1406 19.0195C9.71875 19.1367 9.35547 19.1602 9.05078 19.0898C8.74609 18.9961 8.48828 18.8672 8.27734 18.7031C8.06641 18.5156 7.90234 18.3047 7.78516 18.0703C7.66797 17.8359 7.59766 17.6133 7.57422 17.4023ZM21.0742 32.0273C21.168 31.957 21.3203 31.8398 21.5312 31.6758C21.7188 31.5117 21.9531 31.207 22.2344 30.7617C22.4922 30.3164 22.7852 29.6719 23.1133 28.8281C23.4414 27.9844 23.7812 26.8359 24.1328 25.3828C24.3203 24.6094 24.5664 23.625 24.8711 22.4297C25.1758 21.2344 25.5039 19.957 25.8555 18.5977C26.2305 17.2383 26.6055 15.8438 26.9805 14.4141C27.3555 12.9609 27.7188 11.5898 28.0703 10.3008C28.4219 8.98828 28.7383 7.80469 29.0195 6.75C29.3008 5.69531 29.5234 4.875 29.6875 4.28906C29.2422 4.57031 28.8086 4.88672 28.3867 5.23828C28.0117 5.54297 27.6133 5.89453 27.1914 6.29297C26.7695 6.66797 26.3594 7.06641 25.9609 7.48828C25.6562 7.23047 25.4219 6.94922 25.2578 6.64453C25.1641 6.50391 25.082 6.35156 25.0117 6.1875C24.8711 5.83594 24.8008 5.47266 24.8008 5.09766C24.8008 4.72266 25.0938 4.33594 25.6797 3.9375C25.9844 3.72656 26.4414 3.42188 27.0508 3.02344C27.6836 2.625 28.457 2.23828 29.3711 1.86328C30.2852 1.46484 31.3516 1.125 32.5703 0.84375C33.7891 0.5625 35.1367 0.421875 36.6133 0.421875C38.0898 0.421875 39.2734 0.714844 40.1641 1.30078C41.0781 1.88672 41.7695 2.60156 42.2383 3.44531C42.7305 4.28906 43.0469 5.17969 43.1875 6.11719C43.3281 7.05469 43.3633 7.875 43.293 8.57812C43.1523 9.89062 42.7305 11.2617 42.0273 12.6914C41.3242 14.1211 40.3516 15.4453 39.1094 16.6641C37.8672 17.8594 36.3555 18.8789 34.5742 19.7227C32.793 20.5664 30.7539 21.0469 28.457 21.1641C28.2695 22.0547 28.082 22.9688 27.8945 23.9062C27.707 24.8438 27.5078 25.7695 27.2969 26.6836C27.0859 27.5742 26.8633 28.4062 26.6289 29.1797C26.418 29.9766 26.1953 30.6562 25.9609 31.2188C25.7266 31.8281 25.4219 32.3086 25.0469 32.6602C24.6719 33.0352 24.0742 33.2227 23.2539 33.2227C22.832 33.2227 22.4453 33.1172 22.0938 32.9062C21.7188 32.6953 21.3789 32.4023 21.0742 32.0273ZM29.4062 15.9961C29.3359 16.3711 29.2422 16.8633 29.125 17.4727C29.0312 18.0586 28.9141 18.7266 28.7734 19.4766C29.4062 19.3828 30.1094 19.2188 30.8828 18.9844C31.6562 18.7266 32.4297 18.3867 33.2031 17.9648C33.9766 17.543 34.7266 17.0391 35.4531 16.4531C36.2031 15.8438 36.8828 15.1523 37.4922 14.3789C38.1016 13.582 38.6055 12.6914 39.0039 11.707C39.4258 10.6992 39.6953 9.58594 39.8125 8.36719C39.9297 7.19531 39.8594 6.22266 39.6016 5.44922C39.3672 4.65234 39.0156 4.01953 38.5469 3.55078C38.0781 3.05859 37.5391 2.71875 36.9297 2.53125C36.3203 2.32031 35.7109 2.21484 35.1016 2.21484C34.5156 2.21484 33.9414 2.29688 33.3789 2.46094C32.8164 2.625 32.2539 2.83594 31.6914 3.09375C31.7617 3.11719 31.8438 3.17578 31.9375 3.26953C32.0781 3.41016 32.1836 3.60937 32.2539 3.86719C31.6914 6.14062 31.2227 8.03906 30.8477 9.5625C30.4961 11.0859 30.2148 12.3281 30.0039 13.2891C29.7461 14.4141 29.5469 15.3164 29.4062 15.9961ZM42.2383 26.4375C43.2695 22.1016 44.0898 18.6211 44.6992 15.9961C45.332 13.3711 45.8125 11.3672 46.1406 9.98438C46.5156 8.34375 46.7734 7.20703 46.9141 6.57422C46.9844 6.12891 47.043 5.69531 47.0898 5.27344C47.1367 4.89844 47.1602 4.51172 47.1602 4.11328C47.1602 3.71484 47.125 3.35156 47.0547 3.02344C47.2422 2.90625 47.4414 2.8125 47.6523 2.74219C47.8867 2.67188 48.1094 2.61328 48.3203 2.56641C48.5781 2.49609 48.8359 2.4375 49.0938 2.39062C49.3516 2.34375 49.5859 2.32031 49.7969 2.32031C49.9844 2.32031 50.1602 2.34375 50.3242 2.39062C50.4883 2.41406 50.5938 2.48437 50.6406 2.60156C50.7812 2.71875 50.8398 2.95312 50.8164 3.30469C50.8164 3.65625 50.793 4.01953 50.7461 4.39453C50.6523 4.83984 50.5469 5.32031 50.4297 5.83594C50.1484 6.84375 49.7617 8.29688 49.2695 10.1953C48.8477 11.8125 48.2734 14.0156 47.5469 16.8047C46.8438 19.5938 45.9531 23.1094 44.875 27.3516C44.7578 27.4688 44.6172 27.5508 44.4531 27.5977C44.2891 27.6445 44.1367 27.668 43.9961 27.668C43.832 27.668 43.6562 27.6562 43.4688 27.6328C43.3047 27.5859 43.1406 27.5156 42.9766 27.4219C42.8359 27.3281 42.6953 27.1992 42.5547 27.0352C42.4141 26.8945 42.3086 26.6953 42.2383 26.4375ZM68.6758 20.0039C68.3477 20.4727 67.9258 21.0586 67.4102 21.7617C66.8945 22.4414 66.3555 23.1328 65.793 23.8359C65.2539 24.5156 64.7148 25.1484 64.1758 25.7344C63.6602 26.2969 63.2266 26.6953 62.875 26.9297C62.6406 27.0703 62.3711 27.1875 62.0664 27.2812C61.7617 27.375 61.4453 27.4336 61.1172 27.457C60.8125 27.4805 60.5195 27.457 60.2383 27.3867C59.957 27.3398 59.7109 27.2461 59.5 27.1055C59.2891 26.9414 59.1133 26.707 58.9727 26.4023C58.8555 26.1445 58.7383 25.8047 58.6211 25.3828C58.5273 24.9609 58.4922 24.4336 58.5156 23.8008C57.9531 24.7383 57.332 25.4648 56.6523 25.9805C55.9727 26.4727 55.3281 26.8359 54.7188 27.0703C54.0156 27.3281 53.3125 27.4805 52.6094 27.5273C52.2812 27.5273 51.9297 27.4102 51.5547 27.1758C51.1797 26.9648 50.8633 26.625 50.6055 26.1562C50.3477 25.6641 50.1836 25.043 50.1133 24.293C50.043 23.5195 50.1367 22.6055 50.3945 21.5508C50.7227 20.1211 51.2383 18.8203 51.9414 17.6484C52.668 16.4766 53.4531 15.4805 54.2969 14.6602C55.1406 13.8164 55.9727 13.1836 56.793 12.7617C57.6133 12.3398 58.293 12.1523 58.832 12.1992C59.4648 12.3164 59.9805 12.5039 60.3789 12.7617C60.707 12.9961 60.918 13.3477 61.0117 13.8164C61.1289 14.2617 60.9414 14.8594 60.4492 15.6094C60.7773 15.5391 61.0469 15.4922 61.2578 15.4688C61.4922 15.4453 61.668 15.4336 61.7852 15.4336C61.9258 15.4336 62.0195 15.4453 62.0664 15.4688C62.0898 15.5156 62.1016 15.6211 62.1016 15.7852C62.1016 15.9258 62.0664 16.1953 61.9961 16.5938C61.9258 16.9922 61.8203 17.5312 61.6797 18.2109C61.5391 18.8906 61.3516 19.7695 61.1172 20.8477C61.0703 21.0586 61.0234 21.2578 60.9766 21.4453C60.9531 21.6094 60.918 21.7852 60.8711 21.9727C60.8477 22.1367 60.8125 22.3359 60.7656 22.5703C60.7188 22.8047 60.6602 23.0977 60.5898 23.4492C60.5664 23.6602 60.5547 23.8945 60.5547 24.1523C60.5781 24.3867 60.625 24.6094 60.6953 24.8203C60.7656 25.0312 60.8711 25.207 61.0117 25.3477C61.1758 25.4648 61.3984 25.5234 61.6797 25.5234C61.9141 25.5234 62.2188 25.3828 62.5938 25.1016C62.9688 24.7969 63.3672 24.4219 63.7891 23.9766C64.2109 23.5078 64.6445 23.0039 65.0898 22.4648C65.5586 21.9023 65.9922 21.3633 66.3906 20.8477C66.7891 20.332 67.1406 19.875 67.4453 19.4766C67.7734 19.0781 68.0078 18.7852 68.1484 18.5977C68.3359 18.3867 68.5234 18.2695 68.7109 18.2461C68.8984 18.1992 69.0391 18.2461 69.1328 18.3867C69.2266 18.5273 69.2383 18.7383 69.168 19.0195C69.1211 19.3008 68.957 19.6289 68.6758 20.0039ZM58.375 21.5508C58.4922 21.082 58.6328 20.5312 58.7969 19.8984C58.9609 19.2656 59.1016 18.6562 59.2188 18.0703C59.3359 17.4844 59.418 17.0039 59.4648 16.6289C59.5352 16.2305 59.5234 16.043 59.4297 16.0664C59.3125 16.0898 59.1836 16.125 59.043 16.1719C58.9258 16.2188 58.7734 16.2539 58.5859 16.2773C58.3984 16.3008 58.2109 16.3359 58.0234 16.3828C58.2109 16.0078 58.3164 15.7031 58.3398 15.4688C58.3867 15.2109 58.3984 15.0117 58.375 14.8711C58.3516 14.707 58.3047 14.5781 58.2344 14.4844C57.9766 14.2734 57.5195 14.4492 56.8633 15.0117C56.2305 15.5508 55.4922 16.5586 54.6484 18.0352C54.2969 18.6445 54.0156 19.3008 53.8047 20.0039C53.5938 20.6836 53.4414 21.3281 53.3477 21.9375C53.2773 22.5469 53.2656 23.0859 53.3125 23.5547C53.3594 24 53.4531 24.293 53.5938 24.4336C53.8516 24.6914 54.1445 24.8203 54.4727 24.8203C54.8008 24.7969 55.1289 24.7031 55.457 24.5391C55.8086 24.3516 56.1484 24.1172 56.4766 23.8359C56.8281 23.5547 57.1328 23.2617 57.3906 22.957C57.6719 22.6523 57.8945 22.3711 58.0586 22.1133C58.2461 21.8555 58.3516 21.668 58.375 21.5508ZM79.293 18.1055C79.3867 17.9648 79.5039 17.8828 79.6445 17.8594C79.8086 17.8125 79.9375 17.8242 80.0312 17.8945C80.125 17.9648 80.1719 18.082 80.1719 18.2461C80.1953 18.4102 80.1367 18.6328 79.9961 18.9141C79.5273 19.8047 78.9062 20.7656 78.1328 21.7969C77.3828 22.8281 76.5859 23.8008 75.7422 24.7148C74.8984 25.6055 74.0781 26.3438 73.2812 26.9297C72.4844 27.5156 71.8164 27.8086 71.2773 27.8086C70.5039 27.8086 69.8594 27.6562 69.3438 27.3516C68.8281 27.0469 68.418 26.6719 68.1133 26.2266C67.832 25.7812 67.6328 25.3008 67.5156 24.7852C67.3984 24.2461 67.3633 23.7539 67.4102 23.3086C67.4336 22.9336 67.5156 22.2656 67.6562 21.3047C67.7969 20.3203 67.9844 19.1953 68.2188 17.9297C68.4531 16.6406 68.7109 15.2695 68.9922 13.8164C69.2969 12.3398 69.6133 10.9219 69.9414 9.5625C69.543 9.60938 69.1445 9.65625 68.7461 9.70312C68.3477 9.75 67.9844 9.77344 67.6562 9.77344C66.9062 9.77344 66.2031 9.69141 65.5469 9.52734C64.8672 9.33984 64.3633 9.16406 64.0352 9C63.8477 8.90625 63.7656 8.77734 63.7891 8.61328C63.8125 8.42578 63.8828 8.25 64 8.08594C64.1172 7.89844 64.2695 7.74609 64.457 7.62891C64.6211 7.48828 64.7734 7.41797 64.9141 7.41797C65.3594 7.46484 65.8398 7.51172 66.3555 7.55859C66.8711 7.58203 67.4336 7.58203 68.043 7.55859C68.4883 7.53516 68.9102 7.5 69.3086 7.45312C69.7305 7.40625 70.1406 7.34766 70.5391 7.27734C70.8438 6.15234 71.1367 5.17969 71.418 4.35938C71.7227 3.51562 71.9922 2.92969 72.2266 2.60156C72.2969 2.48437 72.4492 2.39062 72.6836 2.32031C72.9414 2.22656 73.2109 2.16797 73.4922 2.14453C73.7734 2.09766 74.043 2.09766 74.3008 2.14453C74.5586 2.16797 74.7461 2.25 74.8633 2.39062C74.9805 2.57813 75.0273 3.05859 75.0039 3.83203C74.9805 4.60547 74.8516 5.58984 74.6172 6.78516C75.6016 6.78516 76.4688 6.84375 77.2188 6.96094C77.9922 7.05469 78.6484 7.17188 79.1875 7.3125C79.7266 7.42969 80.1602 7.55859 80.4883 7.69922C80.8164 7.81641 81.0625 7.89844 81.2266 7.94531C81.3906 7.99219 81.4727 8.10937 81.4727 8.29688C81.4961 8.48438 81.4609 8.68359 81.3672 8.89453C81.2969 9.08203 81.168 9.24609 80.9805 9.38672C80.793 9.52734 80.582 9.57422 80.3477 9.52734C80.1133 9.50391 79.8438 9.45703 79.5391 9.38672C79.2578 9.31641 78.9062 9.25781 78.4844 9.21094C78.0859 9.16406 77.6055 9.11719 77.043 9.07031C76.4805 9.02344 75.8242 9 75.0742 9C74.9336 9 74.7695 9.01172 74.582 9.03516C74.418 9.03516 74.2422 9.03516 74.0547 9.03516C73.9609 9.41016 73.8672 9.78516 73.7734 10.1602C73.7031 10.5117 73.5977 10.8867 73.457 11.2852C73.1523 12.2227 72.8008 13.2422 72.4023 14.3438C72.0508 15.3047 71.6289 16.4062 71.1367 17.6484C70.6445 18.8906 70.0938 20.2148 69.4844 21.6211C69.3438 22.6289 69.3555 23.4023 69.5195 23.9414C69.707 24.457 69.9297 24.832 70.1875 25.0664C70.4922 25.3242 70.8672 25.4648 71.3125 25.4883C71.6641 25.5352 72.0859 25.418 72.5781 25.1367C73.0938 24.832 73.6211 24.4336 74.1602 23.9414C74.6992 23.4492 75.2383 22.9102 75.7773 22.3242C76.3398 21.7383 76.8555 21.1641 77.3242 20.6016C77.793 20.0391 78.2031 19.5352 78.5547 19.0898C78.9062 18.6211 79.1523 18.293 79.293 18.1055ZM77.8867 23.3438C77.6289 23.0859 77.4414 22.8398 77.3242 22.6055C77.2305 22.3477 77.1602 22.1016 77.1133 21.8672C77.0664 21.6094 77.0664 21.3516 77.1133 21.0938C77.207 20.7656 77.3477 20.4609 77.5352 20.1797C77.6992 19.9219 77.9219 19.6641 78.2031 19.4062C78.4844 19.125 78.8594 18.8672 79.3281 18.6328C79.6328 17.8828 79.9023 17.0977 80.1367 16.2773C80.3945 15.4336 80.6172 14.6719 80.8047 13.9922C81.0156 13.1953 81.2031 12.3984 81.3672 11.6016C81.9531 9.60938 82.2578 7.99219 82.2812 6.75C82.3047 5.48438 82.2812 4.65234 82.2109 4.25391C82.1875 4.08984 82.1641 3.92578 82.1406 3.76172C82.0938 3.62109 82.0469 3.46875 82 3.30469C81.9766 3.11719 81.9414 2.94141 81.8945 2.77734C82.1523 2.63672 82.375 2.51953 82.5625 2.42578C82.7734 2.33203 82.9492 2.26172 83.0898 2.21484C83.2539 2.14453 83.4062 2.09766 83.5469 2.07422C84.0859 1.95703 84.5898 1.89844 85.0586 1.89844C85.5508 1.875 85.8203 1.95703 85.8672 2.14453C85.8906 2.26172 85.9141 2.47266 85.9375 2.77734C85.9844 3.08203 86.0078 3.45703 86.0078 3.90234C86.0078 4.34766 85.9727 4.85156 85.9023 5.41406C85.832 5.95313 85.7031 6.52734 85.5156 7.13672C85.3516 7.67578 85.1289 8.42578 84.8477 9.38672C84.5898 10.207 84.25 11.3086 83.8281 12.6914C83.4062 14.0508 82.8555 15.7969 82.1758 17.9297C82.8789 17.6953 83.6523 17.4727 84.4961 17.2617C85.3398 17.0508 86.1953 16.875 87.0625 16.7344C87.9531 16.5938 88.832 16.4883 89.6992 16.418C90.5898 16.3477 91.4102 16.3359 92.1602 16.3828C92.3008 16.3828 92.3945 16.4531 92.4414 16.5938C92.5117 16.7109 92.5117 16.8398 92.4414 16.9805C92.3945 17.1211 92.2656 17.2617 92.0547 17.4023C91.8672 17.5195 91.5859 17.5898 91.2109 17.6133C90.7422 17.6602 90.2266 17.7188 89.6641 17.7891C89.1016 17.8359 88.5156 17.918 87.9062 18.0352C87.3203 18.1289 86.7344 18.2578 86.1484 18.4219C85.5625 18.5625 85.0117 18.7383 84.4961 18.9492C84.0977 19.0898 83.6992 19.2305 83.3008 19.3711C82.9727 19.4883 82.6211 19.6289 82.2461 19.793C81.8945 19.9336 81.6016 20.0625 81.3672 20.1797L80.5586 22.7461C81.918 23.707 82.9609 24.6914 83.6875 25.6992C84.4375 26.707 84.9766 27.6328 85.3047 28.4766C85.7031 29.4609 85.9258 30.4219 85.9727 31.3594C85.9727 32.3906 85.8203 33.4219 85.5156 34.4531C85.2109 35.5078 84.8008 36.5039 84.2852 37.4414C83.793 38.4023 83.207 39.293 82.5273 40.1133C81.8711 40.9336 81.168 41.6367 80.418 42.2227C79.6914 42.8086 78.9414 43.2539 78.168 43.5586C77.418 43.8633 76.7031 43.9805 76.0234 43.9102C75.5312 43.8633 75.1211 43.6992 74.793 43.418C74.4648 43.1602 74.2188 42.8203 74.0547 42.3984C73.8906 42 73.7969 41.543 73.7734 41.0273C73.75 40.5352 73.7969 40.043 73.9141 39.5508C74.0078 39.0586 74.207 38.1445 74.5117 36.8086C74.7695 35.6836 75.168 34.043 75.707 31.8867C76.2461 29.7539 76.9727 26.9062 77.8867 23.3438ZM79.9609 24.9961C79.6328 26.168 79.3398 27.2461 79.082 28.2305C78.8477 29.2148 78.6484 30.082 78.4844 30.832C78.2734 31.6992 78.1094 32.4844 77.9922 33.1875C77.7812 34.0781 77.5586 34.957 77.3242 35.8242C77.1133 36.6914 76.9492 37.4648 76.832 38.1445C76.6914 38.8477 76.6328 39.4102 76.6562 39.832C76.6797 40.2539 76.832 40.4648 77.1133 40.4648C77.793 40.5117 78.4961 40.2422 79.2227 39.6562C79.9727 39.0938 80.6523 38.3672 81.2617 37.4766C81.8711 36.6094 82.375 35.6602 82.7734 34.6289C83.1719 33.6211 83.3711 32.6836 83.3711 31.8164C83.3711 30.8555 83.2188 29.9062 82.9141 28.9688C82.7031 28.4766 82.457 27.9961 82.1758 27.5273C81.918 27.1289 81.6016 26.707 81.2266 26.2617C80.875 25.793 80.4531 25.3711 79.9609 24.9961ZM99.2969 21.4102C99.0625 22.3008 98.7461 23.1328 98.3477 23.9062C97.9492 24.6797 97.4688 25.3477 96.9062 25.9102C96.3672 26.4727 95.7461 26.9062 95.043 27.2109C94.3633 27.5391 93.6133 27.7031 92.793 27.7031C91.832 27.7031 91.0703 27.4922 90.5078 27.0703C89.9688 26.6719 89.5586 26.168 89.2773 25.5586C89.0195 24.9492 88.8672 24.2812 88.8203 23.5547C88.75 22.8281 88.7148 22.1484 88.7148 21.5156C88.7148 21.0703 88.7734 20.5781 88.8906 20.0391C88.9844 19.5 89.125 18.9492 89.3125 18.3867C89.5 17.8242 89.7344 17.2617 90.0156 16.6992C90.3203 16.1367 90.6719 15.6211 91.0703 15.1523C91.2109 14.7539 91.4219 14.4023 91.7031 14.0977C92.0078 13.793 92.3477 13.5469 92.7227 13.3594C93.1211 13.1484 93.543 12.9961 93.9883 12.9023C94.4336 12.7852 94.8672 12.7266 95.2891 12.7266C95.3594 12.7266 95.418 12.7383 95.4648 12.7617C95.5352 12.7852 95.6055 12.8086 95.6758 12.832C95.9805 12.8555 96.3555 12.9727 96.8008 13.1836C97.2695 13.3945 97.7148 13.7109 98.1367 14.1328C98.582 14.5547 98.957 15.0938 99.2617 15.75C99.5664 16.3828 99.7188 17.1562 99.7188 18.0703C99.7188 18.2578 99.707 18.4922 99.6836 18.7734C99.6602 19.0312 99.6367 19.2539 99.6133 19.4414C100.152 19.2305 100.715 18.9727 101.301 18.668C101.887 18.3633 102.449 18.0469 102.988 17.7188C103.551 17.3672 104.066 17.0156 104.535 16.6641C105.004 16.3125 105.379 15.9961 105.66 15.7148C105.895 15.5039 106.094 15.3867 106.258 15.3633C106.422 15.3398 106.539 15.3867 106.609 15.5039C106.68 15.6211 106.691 15.7852 106.645 15.9961C106.598 16.207 106.469 16.4414 106.258 16.6992C106.141 16.8398 105.836 17.1211 105.344 17.543C104.875 17.9648 104.312 18.4219 103.656 18.9141C103 19.4062 102.285 19.8867 101.512 20.3555C100.738 20.8242 100 21.1758 99.2969 21.4102ZM93.3555 16.0664C93.2852 16.2773 93.25 16.5 93.25 16.7344C93.25 17.1094 93.2734 17.5078 93.3203 17.9297C93.3672 18.3281 93.4844 18.6914 93.6719 19.0195C93.8594 19.3477 94.1523 19.6289 94.5508 19.8633C94.9727 20.0742 95.5469 20.1797 96.2734 20.1797C96.3906 20.1797 96.5078 20.1797 96.625 20.1797C96.7422 20.1562 96.8594 20.1328 96.9766 20.1094C97.0469 19.8047 97.1055 19.5352 97.1523 19.3008C97.2227 19.043 97.2578 18.8203 97.2578 18.6328C97.3047 18.1875 97.3047 17.7305 97.2578 17.2617C97.2109 16.793 97.1172 16.3711 96.9766 15.9961C96.8594 15.5977 96.6953 15.2812 96.4844 15.0469C96.2969 14.7891 96.0625 14.6602 95.7812 14.6602C95.3359 14.6602 94.9023 14.7891 94.4805 15.0469C94.082 15.2812 93.707 15.6211 93.3555 16.0664ZM91.1055 22.2539C91.1055 22.6758 91.1289 23.0977 91.1758 23.5195C91.2227 23.918 91.3164 24.2812 91.457 24.6094C91.5977 24.9141 91.7852 25.1719 92.0195 25.3828C92.2539 25.5703 92.5586 25.6641 92.9336 25.6641C93.3555 25.6641 93.7422 25.5703 94.0938 25.3828C94.4453 25.1719 94.7617 24.9141 95.043 24.6094C95.3242 24.2812 95.5703 23.918 95.7812 23.5195C96.0156 23.0977 96.2148 22.6641 96.3789 22.2188C96.2148 22.2422 96.0508 22.2656 95.8867 22.2891C95.7461 22.2891 95.582 22.2891 95.3945 22.2891C94.5039 22.2891 93.7305 22.0312 93.0742 21.5156C92.4414 20.9766 91.9492 20.2969 91.5977 19.4766C91.457 19.9688 91.3398 20.4492 91.2461 20.918C91.1523 21.3867 91.1055 21.832 91.1055 22.2539ZM101.723 26.8242C101.559 27.082 101.383 27.2461 101.195 27.3164C100.984 27.4102 100.809 27.4219 100.668 27.3516C100.504 27.3047 100.398 27.1875 100.352 27C100.305 26.8125 100.352 26.5781 100.492 26.2969C100.562 26.1562 100.727 25.8398 100.984 25.3477C101.219 24.8555 101.512 24.2695 101.863 23.5898C102.191 22.8867 102.555 22.1367 102.953 21.3398C103.352 20.5195 103.727 19.7461 104.078 19.0195C104.453 18.293 104.793 17.6484 105.098 17.0859C105.402 16.5 105.625 16.0781 105.766 15.8203C105.508 15.5859 105.332 15.4219 105.238 15.3281C105.145 15.2109 105.074 14.9766 105.027 14.625C104.98 14.3203 105.051 13.9219 105.238 13.4297C105.426 12.9375 105.672 12.4688 105.977 12.0234C106.281 11.5547 106.621 11.1562 106.996 10.8281C107.371 10.5 107.734 10.3359 108.086 10.3359C108.742 10.3359 109.199 10.5469 109.457 10.9688C109.738 11.3906 109.902 11.8242 109.949 12.2695C109.996 12.5742 109.973 12.9609 109.879 13.4297C109.785 13.8984 109.609 14.3203 109.352 14.6953C109.422 14.7422 109.516 14.8008 109.633 14.8711C109.75 14.918 109.938 14.9414 110.195 14.9414C110.57 14.9414 110.828 14.918 110.969 14.8711C111.133 14.8242 111.379 14.8008 111.707 14.8008C112.105 14.8008 112.434 14.9062 112.691 15.1172C112.949 15.3047 113.16 15.5508 113.324 15.8555C113.488 16.1367 113.605 16.4531 113.676 16.8047C113.77 17.1328 113.828 17.4375 113.852 17.7188C113.922 18.3047 113.77 18.9141 113.395 19.5469C113.02 20.1797 112.562 20.8711 112.023 21.6211C111.695 22.0898 111.367 22.6172 111.039 23.2031C110.711 23.7891 110.57 24.3164 110.617 24.7852C110.664 25.0898 110.746 25.3359 110.863 25.5234C110.98 25.7109 111.309 25.8047 111.848 25.8047C112.246 25.8047 112.68 25.6641 113.148 25.3828C113.641 25.0781 114.133 24.7031 114.625 24.2578C115.141 23.7891 115.645 23.2852 116.137 22.7461C116.629 22.1836 117.086 21.6445 117.508 21.1289C117.93 20.5898 118.281 20.1094 118.562 19.6875C118.867 19.2656 119.09 18.9609 119.23 18.7734C119.348 18.5859 119.5 18.457 119.688 18.3867C119.875 18.3164 120.039 18.3164 120.18 18.3867C120.32 18.457 120.402 18.5977 120.426 18.8086C120.473 19.0195 120.391 19.3008 120.18 19.6523C120.039 19.8867 119.793 20.2617 119.441 20.7773C119.113 21.293 118.703 21.8672 118.211 22.5C117.742 23.1328 117.215 23.7891 116.629 24.4688C116.043 25.125 115.422 25.7344 114.766 26.2969C114.133 26.8359 113.488 27.2812 112.832 27.6328C112.199 27.9844 111.59 28.1602 111.004 28.1602C110.395 28.1602 109.891 28.043 109.492 27.8086C109.094 27.5742 108.766 27.293 108.508 26.9648C108.273 26.6133 108.098 26.2383 107.98 25.8398C107.887 25.418 107.852 25.0312 107.875 24.6797C107.898 24.3984 107.969 24.1055 108.086 23.8008C108.227 23.4727 108.379 23.1445 108.543 22.8164C108.73 22.4648 108.918 22.125 109.105 21.7969C109.316 21.4453 109.504 21.1055 109.668 20.7773C110.066 20.0977 110.383 19.5234 110.617 19.0547C110.875 18.5625 111.004 18.1523 111.004 17.8242C111.004 17.6133 110.957 17.4258 110.863 17.2617C110.77 17.0977 110.617 17.0156 110.406 17.0156C110.266 17.0156 110.16 17.0273 110.09 17.0508C110.043 17.0508 109.984 17.0508 109.914 17.0508C109.867 17.0508 109.785 17.0625 109.668 17.0859C109.574 17.0859 109.422 17.0859 109.211 17.0859C108.906 17.0859 108.648 17.0391 108.438 16.9453C108.227 16.8516 108.027 16.7812 107.84 16.7344C107.746 16.8984 107.535 17.25 107.207 17.7891C106.879 18.3281 106.492 18.9609 106.047 19.6875C105.625 20.4141 105.168 21.1758 104.676 21.9727C104.207 22.7695 103.762 23.5195 103.34 24.2227C102.918 24.9023 102.566 25.4883 102.285 25.9805C101.98 26.4492 101.793 26.7305 101.723 26.8242ZM134.066 25.3828C134.066 24.8906 134.113 24.3281 134.207 23.6953C134.324 23.0625 134.465 22.418 134.629 21.7617C134.793 21.082 134.957 20.4258 135.121 19.793C135.285 19.1602 135.426 18.5977 135.543 18.1055C135.684 17.4961 135.672 17.0273 135.508 16.6992C135.344 16.3711 135.062 16.207 134.664 16.207C134.477 16.207 134.102 16.3711 133.539 16.6992C133 17.0273 132.402 17.6016 131.746 18.4219C131.113 19.2188 130.48 20.3086 129.848 21.6914C129.238 23.0508 128.758 24.7852 128.406 26.8945C127.961 27.1289 127.539 27.2812 127.141 27.3516C126.93 27.3984 126.742 27.4336 126.578 27.457C126.109 27.4805 125.805 27.3984 125.664 27.2109C125.523 27.0469 125.547 26.625 125.734 25.9453C125.828 25.6172 125.992 25.0898 126.227 24.3633C126.484 23.6367 126.73 22.8516 126.965 22.0078C127.199 21.1406 127.398 20.2852 127.562 19.4414C127.75 18.5742 127.844 17.8242 127.844 17.1914C127.844 16.7461 127.762 16.4414 127.598 16.2773C127.457 16.1133 127.246 16.0312 126.965 16.0312C126.754 16.0312 126.402 16.1484 125.91 16.3828C125.418 16.6172 124.867 17.0742 124.258 17.7539C123.648 18.4336 123.039 19.3828 122.43 20.6016C121.844 21.7969 121.34 23.3555 120.918 25.2773V25.207C120.871 25.3945 120.824 25.582 120.777 25.7695C120.73 25.9336 120.695 26.1094 120.672 26.2969C120.648 26.4844 120.613 26.6602 120.566 26.8242L118.809 27.5977C118.691 27.6445 118.539 27.6797 118.352 27.7031C118.188 27.7266 118.023 27.6914 117.859 27.5977C117.719 27.5273 117.613 27.3633 117.543 27.1055C117.473 26.8477 117.496 26.4609 117.613 25.9453L119.828 16.7695C119.898 16.4648 119.957 16.1719 120.004 15.8906C120.051 15.6328 120.074 15.3867 120.074 15.1523C120.098 14.8945 120.086 14.6836 120.039 14.5195C120.438 14.332 120.789 14.1914 121.094 14.0977C121.398 14.0039 121.645 13.9336 121.832 13.8867C122.066 13.8164 122.266 13.7812 122.43 13.7812C123.18 13.7812 123.426 14.4258 123.168 15.7148C123.074 16.0898 122.934 16.6406 122.746 17.3672C123.191 16.8047 123.66 16.2773 124.152 15.7852C124.668 15.2695 125.184 14.8125 125.699 14.4141C126.215 14.0156 126.73 13.6992 127.246 13.4648C127.785 13.2305 128.312 13.1133 128.828 13.1133C129.227 13.1133 129.555 13.2305 129.812 13.4648C130.094 13.6992 130.305 14.0156 130.445 14.4141C130.609 14.7891 130.703 15.2461 130.727 15.7852C130.75 16.3008 130.727 16.8398 130.656 17.4023C131.031 16.9102 131.441 16.418 131.887 15.9258C132.355 15.4102 132.836 14.9531 133.328 14.5547C133.844 14.1562 134.371 13.8281 134.91 13.5703C135.449 13.3125 135.988 13.1836 136.527 13.1836C137.16 13.1836 137.641 13.3711 137.969 13.7461C138.32 14.1211 138.555 14.6016 138.672 15.1875C138.812 15.7734 138.848 16.4062 138.777 17.0859C138.73 17.7656 138.637 18.4219 138.496 19.0547L137.301 23.8008C137.043 24.9727 137.289 25.5586 138.039 25.5586C138.625 25.5586 139.27 25.2773 139.973 24.7148C140.676 24.1523 141.355 23.4844 142.012 22.7109C142.691 21.9375 143.324 21.1406 143.91 20.3203C144.496 19.5 144.988 18.8438 145.387 18.3516C145.527 18.1875 145.668 18.0938 145.809 18.0703C145.973 18.0469 146.102 18.082 146.195 18.1758C146.312 18.2461 146.371 18.375 146.371 18.5625C146.395 18.75 146.336 18.9844 146.195 19.2656C145.727 20.0859 145.152 21 144.473 22.0078C143.793 22.9922 143.043 23.918 142.223 24.7852C141.426 25.6523 140.57 26.3789 139.656 26.9648C138.742 27.5508 137.793 27.8438 136.809 27.8438C136.48 27.8438 136.152 27.8086 135.824 27.7383C135.52 27.668 135.227 27.5391 134.945 27.3516C134.688 27.1641 134.477 26.918 134.312 26.6133C134.148 26.2852 134.066 25.875 134.066 25.3828Z" fill="black"/>
</svg>
